<?xml version="1.0" standalone="no"?>
<!DOCTYPE svg PUBLIC "-//W3C//DTD SVG 20010904//EN"
 "http://www.w3.org/TR/2001/REC-SVG-20010904/DTD/svg10.dtd">
<svg version="1.0" xmlns="http://www.w3.org/2000/svg"
 width="236.000000pt" height="236.000000pt" viewBox="0 0 236.000000 236.000000"
 preserveAspectRatio="xMidYMid meet">
<metadata>
Created by potrace 1.14, written by Peter Selinger 2001-2017
</metadata>
<g transform="translate(0.000000,236.000000) scale(0.100000,-0.100000)"
fill="#000000" stroke="none">
<path d="M328 2352 c-22 -4 -22 -18 -3 -56 17 -33 19 -53 5 -58 -5 -1 -7 -13
-4 -25 4 -13 11 -20 20 -16 12 4 12 0 0 -28 -12 -28 -12 -36 1 -56 8 -12 12
-27 8 -32 -4 -7 1 -8 12 -4 16 6 16 5 4 -10 -18 -22 -13 -27 22 -20 27 5 38
35 17 48 -6 4 -8 15 -5 26 4 13 2 19 -9 19 -9 0 -16 5 -16 10 0 6 4 10 9 10 5
0 9 12 9 26 0 19 -4 24 -17 19 -13 -5 -14 -4 -3 6 18 19 15 40 -5 37 -20 -3
-20 5 -6 67 10 43 7 46 -39 37z m32 -132 c0 -5 -5 -10 -11 -10 -5 0 -7 5 -4
10 3 6 8 10 11 10 2 0 4 -4 4 -10z"/>
<path d="M884 2346 c3 -20 26 -46 42 -46 8 0 14 -7 14 -15 0 -8 6 -12 14 -9 9
4 13 16 11 35 -3 17 1 29 7 29 6 0 9 3 6 6 -4 3 -23 1 -43 -5 -31 -8 -36 -7
-31 5 3 8 -1 14 -8 14 -8 0 -13 -6 -12 -14z"/>
<path d="M1237 2346 c-6 -16 2 -56 12 -56 8 0 8 56 0 65 -4 3 -9 -1 -12 -9z"/>
<path d="M1279 2340 c-19 -20 -9 -47 12 -34 20 12 39 14 39 3 0 -5 -8 -9 -17
-10 -15 0 -15 -2 2 -9 11 -5 16 -9 10 -9 -5 -1 -5 -5 2 -9 9 -6 7 -11 -7 -20
-12 -7 -20 -8 -20 -2 0 5 -8 10 -18 10 -10 0 -23 5 -30 12 -23 23 -11 -7 14
-36 20 -23 28 -26 34 -15 5 7 13 10 17 5 4 -4 0 -14 -10 -21 -13 -10 -15 -14
-5 -18 7 -2 10 -7 7 -11 -4 -4 -16 3 -28 15 -18 20 -21 21 -27 5 -10 -25 7
-37 57 -42 40 -3 42 -2 25 11 -16 12 -17 17 -6 30 16 19 20 95 5 95 -6 0 -6 3
1 8 8 5 6 15 -5 32 -20 30 -31 33 -52 10z"/>
<path d="M1803 2349 c1 -6 -4 -14 -12 -17 -8 -3 -11 0 -7 7 4 7 2 9 -8 5 -14
-6 -32 -35 -18 -32 13 4 52 -13 52 -22 0 -5 -8 -6 -17 -3 -12 5 -15 2 -10 -10
3 -9 2 -17 -3 -17 -6 0 -10 -4 -10 -8 0 -5 15 -9 34 -10 l33 -1 -12 37 c-9 26
-10 41 -3 50 6 6 7 12 2 12 -5 0 -2 5 6 10 12 8 11 10 -7 10 -13 0 -22 -5 -20
-11z"/>
<path d="M1820 2316 c0 -2 7 -6 15 -10 8 -3 15 -1 15 4 0 6 -7 10 -15 10 -8 0
-15 -2 -15 -4z"/>
<path d="M910 2269 c0 -11 -4 -17 -10 -14 -5 3 -10 -1 -10 -10 0 -8 7 -18 15
-21 12 -5 13 -10 4 -20 -9 -11 -8 -14 5 -14 16 0 16 -1 1 -16 -10 -11 -13 -23
-9 -38 4 -11 7 -29 6 -38 0 -10 6 -18 14 -18 8 0 14 5 14 10 0 6 4 10 10 10 5
0 7 -7 4 -15 -4 -8 -12 -15 -20 -15 -8 0 -14 -4 -14 -10 0 -5 5 -10 10 -10 6
0 10 -5 10 -11 0 -5 -6 -7 -12 -3 -10 6 -10 5 -1 -8 7 -8 10 -18 6 -21 -3 -4
0 -13 7 -22 9 -11 9 -19 2 -28 -6 -7 -13 -30 -15 -50 -4 -36 -17 -64 -17 -36
-1 10 -3 9 -11 -3 -5 -10 -16 -15 -24 -12 -9 4 -15 0 -15 -9 0 -10 8 -13 25
-9 14 2 32 -1 40 -8 13 -11 14 -10 10 1 -4 10 5 14 30 16 19 1 35 -3 35 -9 0
-7 4 -7 13 1 8 6 17 8 21 4 4 -4 5 -1 1 7 -3 9 3 20 15 28 13 8 20 8 20 1 0
-5 5 -7 10 -4 9 6 5 41 -5 53 -7 8 -45 -10 -40 -19 4 -5 -1 -9 -10 -9 -11 0
-15 5 -11 15 3 8 1 15 -5 15 -5 0 -13 8 -16 18 -4 9 -14 22 -22 29 -14 11 -13
12 6 13 37 0 54 63 25 92 -14 14 -16 38 -2 38 5 0 0 16 -12 36 -16 27 -18 38
-9 44 9 5 5 9 -11 14 -13 3 -19 9 -13 13 6 5 11 16 11 25 1 14 -3 15 -23 7
-22 -8 -24 -7 -18 11 4 11 2 20 -4 20 -6 0 -11 -9 -11 -21z m80 -205 c0 -4 -8
-13 -17 -20 -17 -13 -17 -13 2 -14 l20 -1 -20 -8 c-30 -12 -37 -3 -19 25 15
22 34 32 34 18z m-9 -143 c-7 -5 -11 -13 -7 -19 3 -6 2 -13 -3 -16 -5 -4 -13
-2 -16 4 -8 13 12 40 29 40 6 0 5 -4 -3 -9z"/>
<path d="M1295 2270 c3 -5 11 -10 16 -10 6 0 7 5 4 10 -3 6 -11 10 -16 10 -6
0 -7 -4 -4 -10z"/>
<path d="M1780 2219 c0 -5 -4 -7 -10 -4 -12 8 -13 -1 -1 -43 6 -18 6 -30 2
-28 -4 3 -13 1 -21 -4 -13 -8 -12 -12 5 -24 19 -14 19 -15 2 -16 -14 0 -17 -5
-11 -22 4 -13 11 -26 16 -29 5 -3 1 -9 -9 -13 -17 -7 -17 -8 0 -21 15 -11 16
-13 2 -19 -13 -5 -13 -9 -3 -28 7 -13 18 -26 23 -30 6 -4 2 -8 -8 -8 -11 0
-17 -6 -14 -12 2 -7 -3 -19 -12 -25 -14 -12 -14 -14 3 -28 11 -8 14 -15 8 -15
-7 0 -12 -7 -12 -15 0 -9 6 -12 15 -9 19 8 19 -10 0 -26 -18 -15 -10 -31 10
-23 8 3 15 0 15 -6 0 -6 -11 -16 -25 -21 -14 -5 -25 -13 -26 -17 0 -5 -2 -21
-4 -36 -3 -22 1 -30 18 -37 21 -8 21 -9 2 -10 -19 -1 -19 -1 -2 -14 23 -18 22
-26 -5 -26 -12 0 -19 -3 -15 -6 3 -3 2 -17 -3 -30 -6 -15 -6 -24 0 -24 6 0 10
-7 10 -15 0 -8 5 -15 10 -15 6 0 13 7 16 15 4 8 11 15 16 15 6 0 3 -11 -6 -25
-20 -30 -21 -41 -2 -25 11 8 20 9 33 1 10 -6 14 -11 10 -11 -7 0 7 -30 39 -88
1 -2 11 1 21 7 15 8 20 7 20 -4 0 -8 -6 -16 -14 -19 -11 -5 -11 -12 2 -43 9
-21 20 -39 25 -41 5 -2 7 -9 4 -16 -6 -17 19 -37 51 -40 14 -2 29 -7 33 -11 4
-5 0 -6 -8 -3 -8 3 -26 1 -39 -4 -23 -8 -24 -9 -5 -23 10 -8 14 -15 7 -15 -13
0 -13 -57 0 -77 5 -7 5 -13 1 -13 -3 0 -1 -7 6 -15 7 -8 8 -15 3 -15 -14 0
-15 -53 -1 -62 9 -5 10 -8 1 -8 -6 0 -17 -17 -24 -37 -6 -21 -15 -40 -18 -43
-10 -8 -32 -101 -26 -111 4 -5 -4 -9 -17 -10 -13 0 -17 -3 -10 -6 18 -7 14
-23 -6 -23 -21 0 -52 -29 -52 -48 0 -7 -5 -12 -11 -12 -7 0 -9 -11 -5 -27 3
-16 3 -22 0 -15 -3 6 -10 12 -15 12 -6 0 -8 -4 -5 -9 3 -5 -4 -11 -15 -14 -12
-3 -18 -10 -15 -15 3 -5 -3 -12 -14 -15 -12 -3 -20 -14 -21 -29 0 -12 -3 -18
-5 -11 -6 15 -83 -36 -84 -54 0 -7 -9 -13 -20 -13 -11 0 -20 -7 -20 -15 0 -8
5 -15 12 -15 6 0 9 -2 6 -5 -3 -3 -17 -1 -30 6 -20 9 -33 8 -59 -4 -19 -8 -59
-21 -89 -27 -30 -7 -63 -17 -74 -22 -13 -7 -21 -6 -27 4 -7 10 -9 10 -9 1 0
-21 -16 -15 -17 7 -1 14 4 20 18 20 11 0 19 7 19 18 0 14 -2 14 -9 3 -5 -8
-16 -11 -25 -8 -16 6 -21 -7 -18 -46 1 -10 -3 -15 -8 -12 -6 4 -9 22 -5 41 5
33 4 34 -17 23 -19 -10 -82 -16 -214 -20 -59 -1 -164 18 -164 31 0 5 -14 12
-32 15 -17 4 -47 16 -65 26 -19 11 -40 19 -49 19 -8 0 -28 10 -44 22 -25 18
-31 19 -47 7 -9 -8 -14 -9 -10 -2 5 7 -1 17 -15 24 -32 17 -62 47 -64 65 -1 9
-11 22 -22 30 -21 14 -57 90 -53 112 1 6 -2 12 -8 12 -5 0 -15 17 -21 38 -6
20 -14 44 -17 52 -3 8 -7 30 -9 49 -2 19 -9 38 -16 43 -9 5 -8 8 6 8 15 0 17
5 13 30 -5 24 -3 30 10 30 13 0 14 3 5 12 -16 16 -15 38 1 38 7 0 20 18 30 40
21 50 21 51 -1 43 -14 -5 -14 -3 3 14 32 32 59 68 56 72 -1 2 3 8 11 12 11 7
10 11 -2 19 -13 8 -12 10 3 10 10 0 16 4 13 9 -3 5 1 12 9 15 9 3 20 17 25 31
6 15 14 24 18 21 5 -3 16 6 26 20 11 13 27 24 36 24 10 0 23 7 30 15 6 8 16
13 22 12 5 -1 14 8 19 21 8 22 -4 32 -16 12 -4 -6 -11 -8 -16 -5 -5 4 -9 0 -9
-8 0 -19 -25 -29 -54 -21 -18 4 -25 1 -29 -16 -3 -12 -10 -19 -16 -15 -6 3
-14 -1 -17 -9 -3 -9 -12 -16 -18 -16 -7 0 -29 -16 -50 -35 -21 -19 -42 -35
-47 -35 -5 0 -6 -7 -2 -16 4 -11 2 -15 -7 -12 -11 3 -80 -71 -80 -86 0 -3 10
-6 23 -9 19 -3 18 -5 -9 -11 -26 -7 -31 -12 -26 -29 4 -14 2 -18 -7 -12 -10 6
-11 2 -6 -15 5 -15 4 -20 -4 -16 -6 4 -11 3 -11 -3 0 -5 8 -14 17 -20 13 -7
14 -12 5 -23 -6 -8 -11 -23 -10 -33 0 -11 -2 -53 -6 -93 -4 -54 -3 -71 6 -66
7 5 9 0 6 -14 -4 -12 -2 -22 3 -22 5 0 9 -10 9 -22 0 -21 0 -21 -14 -2 -14 19
-15 18 -13 -3 0 -12 4 -21 7 -21 25 2 33 -3 22 -14 -20 -20 -14 -48 11 -49
l22 0 -23 -11 c-22 -11 -31 -38 -11 -38 5 0 7 5 4 10 -3 6 -2 10 4 10 5 0 14
-6 18 -14 4 -7 18 -18 31 -25 12 -7 20 -16 17 -22 -8 -12 4 -51 14 -45 9 6 41
-30 34 -38 -4 -3 1 -6 11 -6 16 0 46 -22 46 -34 0 -3 -7 -3 -15 0 -8 4 -15 1
-15 -5 0 -6 7 -11 16 -11 18 0 85 -37 95 -53 4 -5 8 -4 10 2 3 8 12 9 28 3 24
-9 24 -9 3 -14 -12 -4 -22 -11 -22 -17 0 -6 6 -8 14 -5 9 3 31 -12 55 -36 23
-24 41 -38 41 -34 0 5 4 2 10 -6 6 -10 2 -25 -13 -50 -11 -19 -24 -37 -27 -40
-21 -17 -40 -59 -40 -87 0 -30 3 -33 29 -33 36 0 46 -28 25 -70 -9 -16 -18
-45 -21 -65 -5 -33 -4 -35 21 -35 19 0 26 5 26 18 0 10 3 22 7 26 4 4 8 23 9
42 1 39 21 59 41 42 7 -6 13 -7 13 -3 0 4 11 0 25 -9 46 -30 118 -66 132 -66
7 0 18 10 23 23 6 16 9 17 9 5 1 -14 6 -12 27 9 26 26 26 57 -1 47 -8 -3 -15
-1 -15 6 0 6 -12 11 -27 10 -44 -3 -55 -1 -48 10 8 13 -22 43 -35 35 -6 -4
-17 -2 -24 4 -7 6 -39 19 -72 29 -53 16 -59 20 -56 43 2 13 8 26 13 27 5 2 9
10 9 18 0 8 5 14 10 14 6 0 10 6 10 14 0 20 48 8 55 -15 4 -10 4 -23 1 -28 -4
-5 2 -11 11 -13 10 -2 23 5 31 17 11 18 12 18 6 -7 -4 -18 -2 -28 6 -28 6 0 8
5 4 12 -5 8 -2 9 12 4 50 -20 123 -9 107 17 -4 6 10 1 31 -11 20 -12 35 -18
32 -13 -7 11 22 23 37 14 7 -4 8 0 4 12 -6 14 -3 17 18 13 18 -4 25 -1 25 11
0 13 2 13 9 2 7 -11 9 -11 14 0 5 11 8 10 17 -3 8 -13 23 -17 51 -16 38 1 39
2 22 21 -17 19 -17 20 4 8 29 -15 36 -14 29 4 -7 20 4 19 18 -1 9 -12 17 -13
41 -4 15 6 34 9 42 6 7 -3 13 -1 13 3 0 5 -6 12 -12 14 -7 3 -3 6 10 6 15 1
21 -3 16 -11 -5 -7 -3 -8 7 -2 8 5 25 10 39 12 29 4 40 18 40 54 0 15 3 29 8
32 4 2 6 -14 5 -37 -1 -23 0 -34 3 -24 4 13 11 16 26 11 17 -5 20 -3 15 10 -5
14 -3 16 12 11 14 -4 23 0 31 15 15 29 47 60 61 60 6 0 9 7 5 15 -3 8 -1 15 4
15 6 0 10 7 10 16 0 14 3 14 15 4 8 -7 16 -10 16 -6 1 3 2 9 3 14 4 21 20 32
37 27 13 -4 19 -2 19 9 0 10 6 13 15 10 8 -4 15 -1 15 5 0 6 -4 11 -8 11 -5 0
-17 7 -28 15 -18 14 -16 14 19 9 35 -5 38 -4 44 26 3 17 14 37 24 43 13 8 15
15 7 24 -8 10 -6 13 6 13 9 0 16 5 16 11 0 6 7 17 15 26 9 8 14 23 13 32 -2 9
9 29 24 44 31 32 35 42 14 34 -22 -9 -26 28 -4 42 10 6 16 16 13 21 -3 6 3 10
14 10 17 0 19 5 15 43 -2 23 -6 57 -7 75 -2 19 -10 38 -18 43 -11 7 -9 9 7 9
32 0 35 10 14 37 -14 18 -17 30 -11 41 7 13 2 20 -22 31 -29 13 -30 15 -10 18
12 2 27 10 33 18 9 11 2 18 -36 34 -25 12 -51 21 -56 21 -5 0 -6 5 -3 11 4 6
14 8 22 5 11 -4 13 -2 9 9 -3 8 -1 15 4 15 5 0 7 7 4 15 -4 8 -16 15 -28 15
-21 1 -21 1 -1 16 20 15 20 15 1 30 -11 8 -29 12 -40 9 -12 -3 -15 -2 -8 1 6
3 12 12 12 20 0 10 -7 13 -25 8 -25 -6 -36 10 -12 19 8 3 6 10 -8 21 -12 9
-15 15 -7 16 23 0 -15 57 -44 64 -21 6 -24 10 -14 19 10 9 14 9 17 0 3 -7 9
-13 14 -13 6 0 -2 16 -16 35 -15 19 -24 39 -20 45 9 15 38 -9 31 -27 -3 -7 -4
-13 -2 -13 3 0 12 -3 21 -7 14 -5 16 -2 10 17 -5 17 -4 21 6 16 8 -4 6 -1 -3
7 -22 18 -23 31 -2 23 10 -4 13 -2 7 7 -4 6 -6 25 -4 40 2 22 -2 30 -18 34
-12 3 -21 9 -21 13 0 5 10 6 23 3 12 -3 19 -2 15 2 -4 5 -3 14 3 22 9 9 8 13
0 13 -18 0 -13 28 7 33 14 4 14 5 -3 6 -16 1 -17 3 -5 11 11 7 9 11 -13 19
-38 15 -34 21 11 14 l37 -6 -25 24 c-13 13 -28 23 -31 22 -4 -1 -12 4 -18 11
-9 11 -6 12 16 8 28 -5 28 -5 10 16 -18 20 -18 20 1 15 17 -4 20 -1 15 15 -3
14 -11 19 -21 15 -14 -4 -14 -2 1 10 16 13 17 19 7 37 -8 15 -8 20 -1 16 12
-8 9 35 -5 68 -5 13 -4 17 3 13 7 -4 10 -1 9 8 -3 18 -16 32 -16 17 0 -7 -5
-12 -11 -12 -5 0 -7 5 -4 10 3 6 -1 10 -9 10 -9 0 -16 -5 -16 -11z m37 -81
c-3 -8 -6 -5 -6 6 -1 11 2 17 5 13 3 -3 4 -12 1 -19z m-32 -68 c3 -5 2 -10 -4
-10 -5 0 -13 5 -16 10 -3 6 -2 10 4 10 5 0 13 -4 16 -10z m9 -165 c-4 -8 -11
-15 -16 -15 -6 0 -5 6 2 15 7 8 14 15 16 15 2 0 1 -7 -2 -15z m-1164 -429 c0
-3 -4 -8 -10 -11 -5 -3 -10 -1 -10 4 0 6 5 11 10 11 6 0 10 -2 10 -4z m1290
-96 c0 -5 -8 -10 -17 -10 -15 0 -16 2 -3 10 19 12 20 12 20 0z m30 -110 c0 -5
-2 -10 -4 -10 -3 0 -8 5 -11 10 -3 6 -1 10 4 10 6 0 11 -4 11 -10z m45 -60
c-3 -5 -11 -10 -16 -10 -6 0 -7 5 -4 10 3 6 11 10 16 10 6 0 7 -4 4 -10z
m-1555 -19 c0 -6 -4 -13 -10 -16 -5 -3 -10 1 -10 9 0 9 5 16 10 16 6 0 10 -4
10 -9z m1540 -221 c0 -5 -5 -10 -11 -10 -5 0 -7 5 -4 10 3 6 8 10 11 10 2 0 4
-4 4 -10z m-1627 -25 c-3 -9 -8 -14 -10 -11 -3 3 -2 9 2 15 9 16 15 13 8 -4z
m1425 -340 c-3 -3 -9 2 -12 12 -6 14 -5 15 5 6 7 -7 10 -15 7 -18z m-158 -155
c-18 -12 -43 -13 -36 -2 2 4 15 8 28 9 18 2 19 0 8 -7z m-660 -34 c0 -11 -19
-15 -25 -6 -3 5 1 10 9 10 9 0 16 -2 16 -4z m570 -5 c0 -3 -4 -12 -9 -19 -6
-11 -11 -10 -25 3 -20 21 -21 20 9 21 14 1 25 -1 25 -5z"/>
<path d="M1261 2131 c-7 -5 -9 -11 -4 -14 5 -3 15 -2 22 2 7 5 9 11 4 14 -5 3
-15 2 -22 -2z"/>
<path d="M1310 2135 c0 -3 10 -10 23 -16 19 -8 19 -9 -8 -5 -42 6 -61 -6 -46
-30 6 -11 11 -14 11 -9 0 6 4 5 8 -2 12 -19 52 -3 58 23 3 12 3 28 -1 33 -6
11 -45 16 -45 6z"/>
<path d="M1260 2040 c4 -23 15 -47 24 -53 16 -12 16 -14 -2 -35 -14 -15 -25
-20 -38 -15 -17 6 -17 5 -5 -10 16 -20 1 -23 -17 -5 -10 10 -15 10 -22 -2 -8
-12 -12 -12 -18 -2 -10 15 -58 9 -55 -7 2 -6 -4 -11 -12 -11 -8 0 -12 -6 -9
-14 4 -11 22 -14 70 -12 35 2 64 -2 64 -7 0 -5 7 -7 15 -3 8 3 27 0 41 -6 22
-10 27 -9 35 5 14 25 32 22 19 -3 -9 -16 -8 -20 5 -20 25 0 29 -1 41 -11 9 -7
11 0 8 23 -1 18 -4 35 -5 38 -1 3 -1 8 0 13 0 4 -6 7 -15 7 -11 0 -15 6 -11
20 3 11 1 23 -4 26 -5 3 -7 9 -4 14 3 5 0 21 -7 37 -6 15 -10 31 -10 36 1 4
-12 6 -29 5 -20 -2 -34 3 -40 15 -17 30 -27 18 -19 -23z m73 -44 c17 -13 16
-14 -3 -19 -12 -3 -18 -1 -14 5 4 6 0 14 -7 19 -8 5 -9 9 -4 9 6 -1 18 -7 28
-14z"/>
<path d="M373 2021 c-14 -22 6 -121 24 -121 7 0 13 -4 13 -10 0 -5 -4 -10 -9
-10 -6 0 -6 -12 -1 -30 5 -16 6 -30 3 -30 -3 0 1 -8 9 -17 9 -10 14 -26 13
-35 -5 -27 48 -181 71 -211 12 -15 29 -27 38 -27 23 0 20 35 -5 58 -21 21 -49
98 -49 139 0 13 -4 21 -10 18 -6 -3 -7 1 -4 9 3 9 -1 39 -10 68 -12 41 -36
175 -36 201 0 14 -38 12 -47 -2z"/>
<path d="M1010 1980 c-13 -8 -12 -10 3 -10 9 0 17 5 17 10 0 12 -1 12 -20 0z"/>
<path d="M947 1447 c-2 -7 0 -20 5 -29 5 -11 5 -18 -1 -18 -6 0 -15 -17 -20
-37 -44 -172 -43 -162 -24 -188 20 -27 51 -33 59 -10 4 8 12 15 19 15 7 0 15
20 19 48 4 26 10 63 13 82 3 19 6 49 7 65 0 17 5 33 11 37 15 10 -4 24 -47 36
-27 7 -38 7 -41 -1z"/>
<path d="M1324 1412 c4 -10 2 -39 -3 -65 -4 -26 -5 -47 -2 -47 4 0 4 -26 0
-57 -10 -90 20 -127 81 -100 15 7 21 72 9 92 -4 6 -4 21 -2 35 2 14 4 49 4 79
-1 60 -17 80 -64 81 -23 0 -27 -4 -23 -18z"/>
<path d="M315 1109 c-11 -16 -1 -19 13 -3 7 8 8 14 3 14 -5 0 -13 -5 -16 -11z"/>
<path d="M1701 1016 c-11 -13 -11 -19 0 -33 8 -9 -3 -4 -24 11 -36 28 -38 28
-52 10 -19 -25 -18 -31 3 -44 14 -10 13 -10 -9 -6 -25 5 -27 3 -31 -29 -3 -30
-1 -36 18 -41 12 -3 31 -1 42 5 16 8 21 7 26 -5 4 -9 13 -14 21 -10 8 3 15 1
15 -5 0 -6 5 -7 10 -4 6 4 8 11 5 16 -4 5 -2 9 3 9 11 0 35 50 28 58 -3 3 2
11 11 17 15 11 14 14 -14 29 -17 8 -33 21 -35 27 -2 7 -8 5 -17 -5z"/>
<path d="M1504 1004 c-3 -11 -10 -27 -15 -36 -12 -24 -11 -31 4 -22 9 6 9 4
-1 -8 -22 -28 0 -69 34 -64 12 2 24 18 34 45 16 45 10 63 -28 89 -20 13 -22
12 -28 -4z"/>
<path d="M619 933 c-1 -5 -1 -11 -1 -14 1 -4 -7 -5 -18 -2 -28 7 -40 -45 -15
-64 11 -7 26 -13 34 -13 19 1 48 38 57 74 6 24 4 26 -25 26 -17 0 -32 -3 -32
-7z"/>
<path d="M738 910 c-15 -4 -28 -6 -30 -4 -2 1 -4 -6 -4 -16 0 -11 7 -20 16
-20 10 -1 8 -5 -7 -13 -24 -13 -19 -30 11 -35 22 -4 68 17 61 28 -3 4 3 14 12
21 15 12 16 12 9 -6 -17 -41 -18 -56 -6 -70 7 -8 19 -15 27 -15 21 0 63 41 63
61 0 9 7 22 15 29 21 17 19 27 -6 35 -37 12 -54 13 -66 3 -7 -5 -14 -5 -18 2
-7 12 -38 12 -77 0z"/>
<path d="M1082 882 c-7 -5 -10 -16 -7 -24 4 -9 0 -18 -9 -21 -9 -4 -16 -13
-16 -21 0 -10 -6 -13 -16 -9 -9 3 -13 12 -9 21 3 9 3 13 -1 9 -4 -4 -13 -2
-21 5 -18 14 -28 4 -18 -19 10 -23 6 -46 -8 -55 -8 -5 -5 -16 10 -35 25 -33
61 -35 95 -4 22 21 44 29 33 11 -10 -16 48 -40 70 -28 30 16 52 42 47 56 -2 6
3 12 11 12 28 0 36 50 11 74 -22 22 -32 20 -63 -13 -22 -23 -29 -26 -39 -15
-7 8 -10 14 -6 14 4 0 -3 11 -16 25 -26 27 -29 29 -48 17z"/>
<path d="M1610 395 c0 -9 -4 -13 -10 -10 -5 3 -10 1 -10 -5 0 -6 -6 -8 -12 -4
-10 5 -10 4 -1 -6 7 -8 8 -22 3 -41 -6 -21 -5 -27 2 -23 7 5 9 0 6 -14 -4 -12
-3 -22 0 -22 4 0 7 -11 7 -25 0 -30 -11 -33 -18 -4 -3 12 -10 18 -16 14 -6 -3
-8 -12 -5 -18 5 -9 4 -9 -6 0 -10 9 -18 8 -38 -7 -14 -11 -31 -20 -38 -20 -7
0 -16 -5 -20 -11 -4 -8 1 -9 17 -4 21 7 22 6 7 -8 -9 -9 -25 -15 -36 -12 -11
2 -32 -3 -46 -10 -33 -17 -87 -9 -79 11 3 8 0 14 -6 14 -6 0 -11 -6 -11 -12 0
-14 -25 25 -36 55 -4 9 -17 20 -30 23 -13 3 -24 11 -24 18 0 6 -4 4 -10 -4 -6
-9 -5 -17 2 -21 7 -4 7 -9 -1 -13 -6 -4 -11 -4 -11 1 0 4 -5 1 -10 -7 -8 -12
-10 -12 -10 5 -1 19 -2 19 -14 3 -7 -10 -15 -15 -18 -13 -3 3 -13 -4 -23 -15
-10 -11 -29 -20 -42 -20 -22 0 -53 -20 -53 -34 0 -3 15 -6 34 -6 19 0 38 -4
41 -10 3 -6 -1 -7 -9 -4 -9 3 -16 1 -16 -5 0 -16 26 -14 44 4 8 8 21 15 29 15
8 0 26 11 39 25 l25 25 -4 -24 c-5 -23 -2 -24 26 -20 18 3 31 1 31 -5 0 -6 -7
-11 -15 -11 -13 0 -13 -3 -3 -20 15 -24 28 -26 28 -5 0 18 16 20 26 3 4 -7 3
-8 -4 -4 -7 4 -12 2 -12 -4 0 -6 7 -13 15 -16 8 -4 15 -17 15 -31 0 -18 5 -24
18 -21 9 2 16 11 16 21 -1 9 2 17 7 17 5 0 9 -7 9 -16 0 -9 6 -14 13 -11 6 2
11 14 10 26 -3 24 7 27 26 8 11 -9 14 -9 18 1 3 6 11 12 19 12 8 0 14 5 14 10
0 6 9 10 19 10 10 0 21 6 24 14 3 7 15 16 26 19 12 3 19 1 15 -4 -3 -5 1 -9 8
-9 8 0 22 -25 33 -57 25 -78 30 -83 82 -83 41 0 43 2 40 25 -1 13 -13 36 -24
49 -14 16 -18 26 -10 29 7 2 3 17 -12 42 -22 37 -18 54 13 55 6 0 1 6 -10 14
-18 13 -18 15 -2 21 18 7 19 29 4 53 -4 7 -5 16 -2 20 4 3 -6 12 -21 19 -27
13 -27 13 -3 9 l25 -5 -24 19 c-13 12 -21 26 -18 35 4 8 2 17 -3 20 -6 4 -10
-1 -10 -10z m-390 -175 c0 -5 -5 -10 -11 -10 -5 0 -7 5 -4 10 3 6 8 10 11 10
2 0 4 -4 4 -10z m40 -20 c0 -5 -4 -10 -10 -10 -5 0 -10 5 -10 10 0 6 5 10 10
10 6 0 10 -4 10 -10z m333 -40 c3 -11 1 -18 -4 -14 -5 3 -9 12 -9 20 0 20 7
17 13 -6z m31 -44 c-3 -9 -12 -16 -20 -16 -11 0 -10 4 4 18 20 22 25 21 16 -2z
m51 -66 c3 -5 -1 -10 -9 -10 -9 0 -16 5 -16 10 0 6 4 10 9 10 6 0 13 -4 16
-10z"/>
</g>
</svg>
